<?xml version="1.0" encoding="UTF-8"?>
<svg version="1.1" xmlns="http://www.w3.org/2000/svg" width="1103" height="1144">
<path d="M0 0 C0 0.99 0 1.98 0 3 C-1.92382904 4.60215988 -3.80412875 5.98493639 -5.875 7.375 C-7.16604566 8.26724448 -8.45637561 9.1605252 -9.74609375 10.0546875 C-10.43687012 10.5300293 -11.12764648 11.00537109 -11.83935547 11.49511719 C-14.81272947 13.56606378 -17.73593917 15.70295276 -20.66210938 17.83984375 C-55.14632353 43 -55.14632353 43 -61 43 C-61 43.66 -61 44.32 -61 45 C-48.63628991 42.40788423 -37.46911772 38.25573095 -26 33 C-25.01757324 32.55060059 -24.03514648 32.10120117 -23.02294922 31.63818359 C-10.96661032 26.07879841 0.84799779 20.32786391 12.07617188 13.21362305 C17.2871829 10.00979443 17.2871829 10.00979443 20.55859375 9.96484375 C23.93595559 11.39684517 27.13551098 13.05076336 30.3125 14.875 C31.36473755 15.47501831 31.36473755 15.47501831 32.43823242 16.0871582 C40.26363705 20.62584047 47.66008527 25.7213515 55 31 C55.75716309 31.54317871 56.51432617 32.08635742 57.29443359 32.64599609 C68.51163167 40.72487091 79.38596386 49.14568863 90 58 C90.89428711 58.73766602 90.89428711 58.73766602 91.80664062 59.49023438 C98.89779835 65.34610773 105.65383285 71.46306469 112.1875 77.9375 C112.82373291 78.56446777 113.45996582 79.19143555 114.11547852 79.83740234 C120.25591624 86.02025674 120.25591624 86.02025674 122 90 C121.82128906 91.99462891 121.82128906 91.99462891 121 94 C113.86405523 99.2076856 104.31189867 101.65171306 96.0625 104.6875 C94.09097868 105.41527191 92.12014554 106.14472158 90.15098572 106.87886047 C88.38352641 107.53755811 86.61382224 108.19022302 84.84399414 108.8425293 C81.86920951 109.94265797 81.86920951 109.94265797 79 112 C88.92345566 112.19037343 98.56336279 111.64832862 108.4375 110.625 C109.72720703 110.49867188 111.01691406 110.37234375 112.34570312 110.2421875 C121.25974594 109.3494441 130.12795016 108.23427571 139 107 C169.60894242 145.24269672 213 209.15235209 213 260 C210.41806023 260.67250524 207.83467929 261.33817901 205.25 262 C204.15558594 262.28617187 204.15558594 262.28617187 203.0390625 262.578125 C199.55428354 263.46515964 196.61876278 264 193 264 C193 264.66 193 265.32 193 266 C194.0621875 266.08636719 195.124375 266.17273438 196.21875 266.26171875 C212.24688471 267.75878974 212.24688471 267.75878974 217 273 C222.27611991 280.42705608 224.25645856 288.93970546 226.17651367 297.70532227 C227.4748264 303.51805216 229.37840705 308.65560149 232 314 C232.30019043 314.61673584 232.60038086 315.23347168 232.90966797 315.86889648 C241.68752488 333.47578604 252.77334418 349.36612151 267 363 C264.09891796 365.90108204 260.59368663 366.25757058 256.7109375 367.1640625 C255.89251373 367.36099701 255.07408997 367.55793152 254.23086548 367.76083374 C251.61379725 368.38893885 248.9944873 369.00706966 246.375 369.625 C244.60140603 370.0488249 242.82796634 370.47329603 241.0546875 370.8984375 C236.70488056 371.93980164 232.35303712 372.97222589 228 374 C233.34902135 376.15867908 238.69517743 378.30083292 244.125 380.25 C245.05570313 380.58515625 245.98640625 380.9203125 246.9453125 381.265625 C247.62335937 381.50796875 248.30140625 381.7503125 249 382 C247.12206903 386.18585547 245.09146585 387.8027313 241 390 C238.29827122 390.58796616 235.77214651 390.80881748 233 391 C233.13277344 391.81339844 233.26554688 392.62679688 233.40234375 393.46484375 C243.66799817 460.07919978 232.3458544 534.7958177 205 596 C204.62762207 596.84111328 204.25524414 597.68222656 203.87158203 598.54882812 C191.68709555 625.86398255 175.62912526 651.63924874 157 675 C156.28457031 675.91652344 155.56914063 676.83304688 154.83203125 677.77734375 C145.09177897 690.16855128 134.6281997 701.70316852 123.4543457 712.80639648 C121.42877518 714.82117835 119.41421616 716.84653275 117.40039062 718.87304688 C110.23630566 726.04463602 102.97834023 732.73551929 95 739 C93.73507129 740.05295017 92.47523539 741.11207605 91.22265625 742.1796875 C90.68962891 742.6334375 90.15660156 743.0871875 89.60742188 743.5546875 C88.55009606 744.45829338 87.49280612 745.36194123 86.43554688 746.265625 C78.52362943 753 78.52362943 753 76 753 C75.92978638 754.3305542 75.92978638 754.3305542 75.8581543 755.68798828 C75.28034718 765.49223466 74.21308181 775.15590853 72.8125 784.875 C72.70428925 785.63124664 72.59607849 786.38749329 72.48458862 787.16665649 C65.27003836 837.02578965 65.27003836 837.02578965 53 851 C50.14675563 852.42662219 48.16545451 852.31033868 45 852 C40.75761237 849.18975596 38.54418813 846.08754829 36.0625 841.6875 C35.43472656 840.59824219 34.80695312 839.50898437 34.16015625 838.38671875 C28.10712174 826.61782141 24.59557381 814.51589245 21.6875 801.6875 C21.1703643 799.4542935 20.64992492 797.2218948 20.12739563 794.98994446 C19.6633225 793.00075242 19.20774403 791.00958416 18.75268555 789.01831055 C18.14168691 786.10211844 18.14168691 786.10211844 17 784 C16.87471924 784.53890869 16.74943848 785.07781738 16.62036133 785.63305664 C16.03391628 788.11367931 15.42342509 790.58779747 14.8125 793.0625 C14.61591797 793.91005859 14.41933594 794.75761719 14.21679688 795.63085938 C11.74677148 805.47296057 7.00831291 810.4931262 -1.0625 816.375 C-1.81909912 816.93952881 -2.57569824 817.50405762 -3.35522461 818.08569336 C-4.87160418 819.21593914 -6.39115367 820.34194626 -7.9140625 821.46337891 C-9.69008712 822.77170041 -11.45760717 824.0897357 -13.21875 825.41796875 C-15.12206204 826.8532961 -17.02966386 828.28295178 -18.94140625 829.70703125 C-21.1700035 831.37776763 -23.38389741 833.0616539 -25.58984375 834.76171875 C-34.26619741 841.4145456 -43.20144313 847.48923832 -52.40234375 853.390625 C-58.77360784 857.48127267 -65.07753601 861.67207382 -71.375 865.875 C-71.94768616 866.25707611 -72.52037231 866.63915222 -73.1104126 867.0328064 C-84.46091378 874.60959658 -95.74488497 882.28233801 -107 890 C-108.40488898 890.96102367 -109.8098332 891.92196658 -111.21484375 892.8828125 C-119.21030264 898.35785643 -127.15851954 903.89871794 -135.09301758 909.46166992 C-144.39756795 915.98445659 -153.72838836 922.46928351 -163.05908203 928.95458984 C-166.00812112 931.00564824 -168.95547438 933.05910695 -171.90234375 935.11328125 C-173.37223755 936.13736084 -173.37223755 936.13736084 -174.87182617 937.18212891 C-176.68881973 938.44812136 -178.50543937 939.7146508 -180.3215332 940.98193359 C-196.54862921 952.28346379 -212.92344885 963.37271762 -229.3125 974.4375 C-230.25233734 975.0720813 -231.19217468 975.7066626 -232.16049194 976.36047363 C-244.96392005 984.99887213 -257.81050394 993.52958979 -270.92333984 1001.69335938 C-272.96111328 1002.97553236 -274.97753703 1004.28528762 -276.98828125 1005.609375 C-297.36517643 1019.02323059 -297.36517643 1019.02323059 -306.5 1019.3125 C-307.2734375 1019.34988281 -308.046875 1019.38726563 -308.84375 1019.42578125 C-311 1019 -311 1019 -312.7421875 1017.2890625 C-315.96047502 1011.43217899 -314.55472208 1004.68007475 -312.8515625 998.4921875 C-304.47910927 971.00059068 -290.44787752 945.1836478 -277.78903198 919.4765625 C-269.80303766 903.25015435 -262.09525899 887.04830646 -255.33984375 870.26220703 C-253.78083546 866.46638547 -252.16132619 862.6993089 -250.53125 858.93359375 C-230.7219949 813.86507555 -230.7219949 813.86507555 -237.33691406 766.24536133 C-248.0086184 740.02068249 -265.49809802 717.03518757 -282.35546875 694.51171875 C-324.06419915 638.67507371 -324.06419915 638.67507371 -321 616 C-319.63901589 612.15722133 -318.59666564 611.31816981 -315.00390625 609.40234375 C-310.39315849 607.5166425 -305.92637229 607.50421565 -301 607.5625 C-300.06575195 607.57297363 -299.13150391 607.58344727 -298.16894531 607.59423828 C-289.98639532 607.80660766 -282.69176059 609.16619347 -275 612 C-274.11924805 612.32258789 -273.23849609 612.64517578 -272.33105469 612.97753906 C-256.09976093 619.02576341 -240.47222651 626.2345966 -225 634 C-223.89865723 634.55204102 -222.79731445 635.10408203 -221.66259766 635.67285156 C-208.55445403 642.27879759 -195.69305672 649.20136801 -183.06054688 656.67700195 C-175.58686152 661.09802924 -168.03715562 665.36195329 -160.4375 669.5625 C-159.30328613 670.19019287 -158.16907227 670.81788574 -157.00048828 671.46459961 C-154.7479716 672.7110956 -152.49536868 673.95743577 -150.24267578 675.20361328 C-136.96971317 682.55660672 -123.78882067 690.05079003 -110.75 697.8125 C-109.73856934 698.410625 -108.72713867 699.00875 -107.68505859 699.625 C-104.76296519 701.37738565 -101.87445715 703.17057855 -99 705 C-97.95134766 705.66563965 -96.90269531 706.3312793 -95.82226562 707.01708984 C-94.30922852 708.03536865 -94.30922852 708.03536865 -92.765625 709.07421875 C-91.85071289 709.68225342 -90.93580078 710.29028809 -89.99316406 710.91674805 C-88 713 -88 713 -87.60766602 716.09399414 C-88.69188754 724.12478994 -97.94916013 729.95971087 -104.0625 734.625 C-106.03027434 736.10022015 -108.01013402 737.5545023 -110 739 C-86.30939046 734.85949056 -61.2094083 724.56537552 -42 710 C-40.72189453 709.05060547 -40.72189453 709.05060547 -39.41796875 708.08203125 C-22.97861783 695.4305492 -12.09612445 680.75911667 -6 661 C-5.73445312 660.16597656 -5.46890625 659.33195313 -5.1953125 658.47265625 C1.04369353 634.1576259 -7.6017263 607.74953312 -19.87744141 586.83349609 C-25.09269129 578.31533024 -31.11262463 570.52722247 -37.92578125 563.2265625 C-39.81324168 561.20047504 -41.59620711 559.12103095 -43.375 557 C-73.04325676 523.11286269 -127.02917169 492.74794899 -172 489 C-187.88645727 488.32051979 -203.46585285 488.4965874 -219 492 C-220.16176758 492.25861816 -221.32353516 492.51723633 -222.52050781 492.78369141 C-250.95775234 499.20097072 -278.68664021 508.08375658 -306.48937988 516.77850342 C-362.54508671 534.298296 -418.3091922 544.03283948 -477 547 C-477.78961121 547.04203552 -478.57922241 547.08407104 -479.39276123 547.12738037 C-491.43913343 547.75637101 -503.4725056 548.06999238 -515.53407669 548.12947655 C-517.75689835 548.14069927 -519.97968451 548.1548209 -522.20248413 548.16975403 C-523.70920789 548.17961803 -525.21593194 548.18943935 -526.72265625 548.19921875 C-527.47484751 548.20412669 -528.22703876 548.20903463 -529.0020237 548.2140913 C-532.81798472 548.23733885 -536.6336709 548.25201698 -540.44970703 548.25048828 C-558.99140319 548.25158157 -576.34860576 549.20048656 -594.5135498 553.43661499 C-605.96061493 556.0303146 -617.44799153 556.21432766 -629.125 556.3125 C-630.14439667 556.32707748 -630.14439667 556.32707748 -631.18438721 556.34194946 C-646.16162769 556.52353974 -662.68813222 554.97916579 -674 544 C-678 538.7027027 -678 538.7027027 -678 535 C-676.13408203 535.30744141 -676.13408203 535.30744141 -674.23046875 535.62109375 C-608.51068072 546.32858463 -547.65224339 523.76512603 -489.11669922 495.38623047 C-478.82961927 490.40221214 -468.43004105 485.67602262 -458 481 C-457 484 -457 484 -457.72265625 485.65625 C-473.01770702 506.7036668 -503.50207198 518.58865989 -527.140625 526.94140625 C-529.8617076 527.72250044 -529.8617076 527.72250044 -531 529 C-490.69502269 531.12545779 -449.81907067 515.85779585 -414 499 C-412.6075708 498.349104 -412.6075708 498.349104 -411.18701172 497.68505859 C-390.75766427 488.05185503 -371.00211798 476.67424307 -353 463 C-351.89893407 462.18422518 -350.79736173 461.36913348 -349.6953125 460.5546875 C-341.19653824 454.21140849 -333.11706488 447.36073463 -325.78515625 439.6796875 C-324 438 -324 438 -322 438 C-327.56932254 459.23304219 -350.0790469 477.91288522 -367 491 C-368.60828068 492.25103504 -370.21633921 493.50235569 -371.82421875 494.75390625 C-373.21607982 495.83602241 -374.60798462 496.91808235 -376 498 C-324.65566003 490.07570037 -275.17709693 470.072276 -237 434 C-235.65070436 432.82770322 -234.29666328 431.66084179 -232.9375 430.5 C-224.77034612 423.34964037 -217.69327522 415.53567502 -211 407 C-210.28070312 406.09765625 -209.56140625 405.1953125 -208.8203125 404.265625 C-193.18785429 384.12701335 -181.8720803 361.51436921 -175 337 C-174.61510505 335.65349659 -174.22972637 334.30713132 -173.84375 332.9609375 C-173.5653125 331.98382813 -173.286875 331.00671875 -173 330 C-172.34 330.33 -171.68 330.66 -171 331 C-166.41385917 346.22809786 -166.62807656 363.18664306 -166.6875 378.9375 C-166.69145782 380.23944305 -166.69145782 380.23944305 -166.69549561 381.56768799 C-166.70802974 384.05444768 -166.73138096 386.54074182 -166.76171875 389.02734375 C-166.76927689 389.77417923 -166.77683502 390.52101471 -166.78462219 391.29048157 C-166.8465694 394.68649388 -167.09932875 397.73093131 -168 401 C-161.90638691 403.0499079 -155.79357185 405.02919713 -149.6640625 406.96875 C-129.09121301 413.51734524 -108.72419045 420.15203035 -89 429 C-87.93700684 429.47646973 -86.87401367 429.95293945 -85.77880859 430.44384766 C-61.1319432 441.6235273 -37.09202437 455.12462938 -17.30078125 473.83984375 C-15.3661321 475.65624609 -13.39535225 477.38535076 -11.3828125 479.11328125 C-6.22743955 483.60858437 -1.39918915 488.41679801 3.4375 493.25 C4.32759766 494.12785156 5.21769531 495.00570312 6.13476562 495.91015625 C12.19567648 501.95778534 17.69845018 508.28057155 23 515 C23.56984619 515.7105957 24.13969238 516.42119141 24.72680664 517.15332031 C55.71198653 555.96770108 78.47970385 603.6754273 78.0625 654.125 C78.05798828 655.176875 78.05347656 656.22875 78.04882812 657.3125 C78.03718011 659.87506221 78.02082553 662.43749877 78 665 C77.34 665 76.68 665 76 665 C75.5875 663.94683594 75.175 662.89367187 74.75 661.80859375 C68.30218771 645.59343467 60.73228307 628.36498373 48 616 C48.49628906 617.1653125 48.99257813 618.330625 49.50390625 619.53125 C63.75096427 653.64511737 69.00239576 687.31168487 70 724 C114.29993683 666.55697546 143.23742576 596.07643526 134.24609375 522.49609375 C126.67436096 466.34011164 99.06827906 415.5497041 60 375 C59.00758301 373.96673584 59.00758301 373.96673584 57.99511719 372.91259766 C49.0322253 363.63202859 40.00393817 354.87728974 29.61621094 347.21044922 C28.02391514 346.01791107 26.46845099 344.77669947 24.9140625 343.53515625 C10.4321732 331.98977095 -5.64102744 322.61867423 -22 314 C-22.94166016 313.50387207 -23.88332031 313.00774414 -24.85351562 312.49658203 C-60.39127594 293.93353006 -98.07325655 280.78354086 -136.06982422 268.29394531 C-141.38544747 266.54600854 -146.69325168 264.77467388 -152 263 C-152 262.67 -152 262.34 -152 262 C-109.65029131 261.35447564 -109.65029131 261.35447564 -91 265 C-89.99710938 265.19335938 -88.99421875 265.38671875 -87.9609375 265.5859375 C-62.59764588 270.63366876 -38.38144369 279.01252466 -15 290 C-14.03529785 290.45213867 -13.0705957 290.90427734 -12.07666016 291.37011719 C28.68463116 310.67279493 65.64495931 337.23427771 100.3671875 365.83203125 C102.11729526 367.27314373 103.87249612 368.70809403 105.6328125 370.13671875 C112.62305325 375.81246817 119.46792791 381.64608843 126.28710938 387.52490234 C129.18676532 390.02201198 132.09351658 392.51084373 135 395 C126.72386021 383.5053614 117.15395163 372.98852646 107.51416016 362.63183594 C105.82906692 360.81578253 104.15480555 358.99003564 102.48046875 357.1640625 C94.68829874 348.64247344 94.68829874 348.64247344 86.17578125 340.859375 C83.71903026 338.75988942 81.37379334 336.56197288 79.02026367 334.34814453 C72.56102248 328.27523601 65.9846457 322.46979397 59 317 C58.40413086 316.53158691 57.80826172 316.06317383 57.19433594 315.58056641 C-14.14043406 259.67965735 -95.67463165 230.54879948 -184.37573242 217.22021484 C-185.31806229 217.07859924 -186.26039215 216.93698364 -187.23127747 216.79107666 C-189.00518289 216.52576083 -190.7794093 216.26257918 -192.55400085 216.00189209 C-193.34619522 215.88412415 -194.13838959 215.7663562 -194.95458984 215.64501953 C-195.6425766 215.54399933 -196.33056335 215.44297913 -197.03939819 215.33889771 C-199.05823017 214.98993469 -201.01925917 214.52114197 -203 214 C-203 213.34 -203 212.68 -203 212 C-200.29191567 211.82805814 -197.58365937 211.66243176 -194.875 211.5 C-193.76318359 211.42845703 -193.76318359 211.42845703 -192.62890625 211.35546875 C-143.37146462 208.45797218 -92.89113716 217.36701402 -46 232 C-44.89140625 232.34256836 -43.7828125 232.68513672 -42.640625 233.03808594 C1.08207639 246.67600995 41.94638384 266.61461853 80 292 C80.85013672 292.5662207 81.70027344 293.13244141 82.57617188 293.71582031 C84.718086 295.14292703 86.85935277 296.57099396 89 298 C81.86720228 291.39146981 74.58558377 285.08829861 67 279 C65.86801214 278.07610551 64.73652513 277.1515971 63.60546875 276.2265625 C-0.73437465 223.84599194 -79.75163982 193.8193016 -162 185 C-162.9497168 184.89558594 -163.89943359 184.79117188 -164.87792969 184.68359375 C-192.62667025 181.75780062 -220.76346914 182.52797669 -248.59765625 183.76953125 C-253.37782545 183.98151772 -258.15275387 184.14104615 -262.9375 184.1875 C-264.06027344 184.20167969 -265.18304687 184.21585938 -266.33984375 184.23046875 C-278.19855186 183.48376248 -287.92765294 179.38106372 -298.6875 174.6875 C-309.975099 169.78504454 -321.16707177 165.41161355 -333 162 C-333.33 162.33 -333.66 162.66 -334 163 C-332.93523437 163.60585937 -331.87046875 164.21171875 -330.7734375 164.8359375 C-321.10589578 170.39306505 -311.89742135 176.279824 -303 183 C-302.4215332 183.43425293 -301.84306641 183.86850586 -301.24707031 184.31591797 C-292.34118337 191.03831525 -284.01982059 198.24588302 -276 206 C-275.34676758 206.63131836 -274.69353516 207.26263672 -274.02050781 207.91308594 C-265.83178483 215.87059792 -257.87367782 223.8524212 -251 233 C-250.20464844 234.051875 -249.40929687 235.10375 -248.58984375 236.1875 C-218.74363063 276.40946015 -210.94228166 322.83175245 -216 372 C-216.30843715 373.67145308 -216.63279721 375.34046663 -217 377 C-217.33 377 -217.66 377 -218 377 C-218.09498779 376.12601562 -218.18997559 375.25203125 -218.2878418 374.3515625 C-224.4164815 318.83372484 -238.6275557 265.84447847 -283.97265625 229.33203125 C-292.25374501 222.95292159 -300.93942148 217.21545716 -310 212 C-307.31785702 214.77357967 -304.55286801 217.20670352 -301.5 219.5625 C-295.38272679 224.41133862 -289.66803634 229.6429091 -284 235 C-283.14277344 235.80308594 -282.28554688 236.60617187 -281.40234375 237.43359375 C-257.78850182 260.22413216 -240.44318041 291.75561349 -239 325 C-239.33 325.66 -239.66 326.32 -240 327 C-240.66 327 -241.32 327 -242 327 C-242.24492188 326.13761719 -242.48984375 325.27523438 -242.7421875 324.38671875 C-248.75352175 304.75660312 -258.99693644 288.34204811 -272.88671875 273.30078125 C-274.79595605 271.22214766 -276.61976644 269.09579254 -278.4375 266.9375 C-282.57995168 262.19785277 -287.2438723 258.11089079 -292 254 C-292.49806152 253.5678418 -292.99612305 253.13568359 -293.50927734 252.69042969 C-300.81106466 246.37056759 -308.30163987 240.34748319 -316.00488281 234.52246094 C-318.33698554 232.74284853 -320.64863324 230.93807083 -322.9609375 229.1328125 C-351.29582358 207.03209493 -351.29582358 207.03209493 -386 202 C-396.57940768 203.74902298 -407.00292496 206.39232595 -417.3125 209.3125 C-422.84712355 210.81633981 -428.28269821 212.26539879 -434 211 C-436.68970298 208.83329482 -437.74090061 206.51266923 -439.28125 203.46484375 C-445.31034044 191.80753325 -452.69897798 186.58187534 -465 182 C-478.08567504 178.05438844 -491.79060473 180.20236811 -503.796875 186.45703125 C-506.25865126 187.89549519 -508.63490612 189.40869838 -511 191 C-511.9075 191.5775 -512.815 192.155 -513.75 192.75 C-520.31072794 199.31072794 -524.02003049 207.55475856 -524.3125 216.75 C-524.24944544 221.82589223 -523.35969206 226.01520887 -521.55859375 230.74609375 C-520.85644301 233.57924744 -521.01783325 235.25357077 -522 238 C-523.84765625 239.36328125 -523.84765625 239.36328125 -526.0625 240.3125 C-526.79597656 240.63863281 -527.52945313 240.96476562 -528.28515625 241.30078125 C-528.85105469 241.53152344 -529.41695312 241.76226562 -530 242 C-526.07986559 247.47874206 -522.1927541 249.75154202 -516.125 252.5 C-490.06145838 264.94253956 -450.45438564 285.3700301 -435 311 C-434.25 313.875 -434.25 313.875 -434 316 C-438.39836626 314.69060318 -441.9820807 312.97487974 -445.8671875 310.54296875 C-447.54856812 309.50172852 -447.54856812 309.50172852 -449.26391602 308.43945312 C-449.85230255 308.07215088 -450.44068909 307.70484863 -451.04690552 307.32641602 C-464.40917902 299.00162348 -478.00672799 291.22323232 -492 284 C-492.82226074 283.57251465 -493.64452148 283.1450293 -494.49169922 282.70458984 C-507.51531074 276.00436532 -521.0322552 271.34508225 -535 267 C-527.66003751 271.69253755 -527.66003751 271.69253755 -520.26953125 276.3046875 C-504.32583017 286.14241753 -489.12674634 296.95782132 -474 308 C-473.20094238 308.58217285 -472.40188477 309.1643457 -471.57861328 309.76416016 C-452.79667632 323.46220826 -434.60891751 337.81822852 -417 353 C-416.48308594 353.44553223 -415.96617187 353.89106445 -415.43359375 354.35009766 C-409.87709332 359.17295529 -404.93612706 363.75648811 -401 370 C-404 371 -404 371 -406.09033203 370.00292969 C-406.88810059 369.48118164 -407.68586914 368.95943359 -408.5078125 368.421875 C-409.40306641 367.84373047 -410.29832031 367.26558594 -411.22070312 366.66992188 C-412.17912109 366.03634766 -413.13753906 365.40277344 -414.125 364.75 C-415.11693359 364.10611328 -416.10886719 363.46222656 -417.13085938 362.79882812 C-420.09287755 360.87437459 -423.04656256 358.9375859 -426 357 C-428.83027049 355.16191687 -431.66531971 353.33127202 -434.5 351.5 C-435.17442139 351.06292725 -435.84884277 350.62585449 -436.54370117 350.17553711 C-520.21059472 295.95515825 -602.07577327 252.15585156 -702 240 C-700.83049863 236.4914959 -700.4077456 236.31676235 -697.25 234.6875 C-687.02329787 229.82872545 -675.58225621 227.46442715 -664.671875 224.6015625 C-652.12175166 221.25151094 -640.63471757 216.76329601 -629 211 C-627.98695801 210.49968262 -626.97391602 209.99936523 -625.93017578 209.48388672 C-609.64911575 201.37649319 -593.95268069 192.43963798 -578.38818359 183.04101562 C-569.36865949 177.60772397 -560.29298449 172.26752133 -551.22851562 166.90966797 C-549.12980707 165.66828123 -547.032094 164.42520942 -544.93554688 163.18017578 C-468.78216434 117.98436509 -383.81153836 84.94946192 -277 76 C-276.27605042 75.94672546 -275.55210083 75.89345093 -274.80621338 75.83856201 C-179.42197938 68.83672797 -87.14752569 86.35447553 89 191 C81.70617703 174.98291137 63.81429692 160.40936458 50 150 C49.46793945 149.59152832 48.93587891 149.18305664 48.38769531 148.76220703 C-25.97800379 91.77659341 -125.72750736 68.76934681 -273 64 C-272.67 63.34 -272.34 62.68 -272 62 C-269.5041466 61.23948062 -267.0571617 60.59891256 -264.51953125 60.01171875 C-263.75509201 59.82664261 -262.99065277 59.64156647 -262.20304871 59.45088196 C-259.74134194 58.85523088 -257.27730542 58.27018664 -254.8125 57.6875 C-233.46269209 52.90222154 -233.46269209 52.90222154 -213.9375 43.375 C-213.27540527 42.94968994 -212.61331055 42.52437988 -211.93115234 42.08618164 C-205.13231119 37.61257351 -199.04579365 32.42838501 -193 27 C-192.15179687 26.26136719 -191.30359375 25.52273437 -190.4296875 24.76171875 C-183.81949408 18.94857438 -177.63347314 12.72732128 -171.45141602 6.46728516 C-169.31001164 4.30246761 -167.15313884 2.15313884 -165 0 C-164.20980469 -0.80179688 -163.41960938 -1.60359375 -162.60546875 -2.4296875 C-157.57731516 -7.51470228 -152.46381097 -12.3872115 -147 -17 C-146.175 -17.7425 -145.35 -18.485 -144.5 -19.25 C-113.04879575 -41.26584297 -30.02266223 -15.01133112 0 0 Z " fill="#464344" transform="translate(780,81)"/>
<path d="M0 0 C13.88938605 10.86764939 27.31905611 22.25832591 40.265625 34.23046875 C43.11725673 36.85280261 46.01880071 39.40738319 48.9453125 41.9453125 C51.29770635 44.00250399 53.61784966 46.09346915 55.9375 48.1875 C60.23595593 52.06262315 64.56338537 55.89808089 68.9375 59.6875 C69.43233887 60.11933594 69.92717773 60.55117188 70.43701172 60.99609375 C74.57010117 64.60048963 78.73848833 68.16014744 82.9375 71.6875 C83.48599609 72.1515625 84.03449219 72.615625 84.59960938 73.09375 C97.50944654 83.912225 110.25965025 89.37113198 126.9375 91.6875 C128.26048383 91.8771362 129.58340336 92.06722164 130.90625 92.2578125 C131.9065625 92.39960937 132.906875 92.54140625 133.9375 92.6875 C133.9375 93.0175 133.9375 93.3475 133.9375 93.6875 C105.43967941 98.01570003 88.72857006 95.18467241 64.0625 80.36328125 C52.98081212 73.62131987 52.98081212 73.62131987 40.390625 71.89453125 C33.3110348 74.18299751 28.40435279 82.26232028 24.125 88 C16.10343062 98.72892756 6.46406078 107.44760785 -4.0625 115.6875 C-5.34569778 116.72185573 -6.62820085 117.75707365 -7.91015625 118.79296875 C-43.08639746 146.96396105 -85.84049414 173.55069377 -131.0625 180.6875 C-132.12597656 180.87892578 -132.12597656 180.87892578 -133.2109375 181.07421875 C-142.35835067 182.51166939 -152.64253889 183.05759167 -161.0625 178.6875 C-163.72850536 176.42543485 -163.98223788 175.11556462 -164.625 171.6875 C-164.15442726 162.53093867 -157.57225573 154.53741203 -151.50390625 148.234375 C-149.58990163 146.23768538 -147.79922789 144.21962562 -146.0078125 142.1171875 C-142.97444262 138.62809816 -139.77430894 135.33538359 -136.48828125 132.0859375 C-135.74569817 131.35159485 -135.74569817 131.35159485 -134.9881134 130.60241699 C-132.93143568 128.57340203 -130.87118506 126.54810493 -128.80639648 124.52734375 C-127.27919701 123.03053036 -125.75843759 121.52739878 -124.23828125 120.0234375 C-123.34020752 119.14220215 -122.44213379 118.2609668 -121.5168457 117.35302734 C-116.94204234 112.64316325 -116.94204234 112.64316325 -114.9921875 106.671875 C-116.60375446 103.68400634 -118.85134861 101.36289676 -121.1875 98.9375 C-122.20251888 97.85872733 -123.21684328 96.77930079 -124.23046875 95.69921875 C-124.72208496 95.1789209 -125.21370117 94.65862305 -125.72021484 94.12255859 C-127.35948019 92.36999371 -128.93613069 90.56998686 -130.5 88.75 C-133.61215106 85.15790275 -136.83144186 81.67219744 -140.0625 78.1875 C-146.97776811 70.72158926 -153.6257603 63.04858407 -160.23608398 55.31274414 C-162.92045399 52.17386007 -165.61681478 49.04684215 -168.33984375 45.94140625 C-175.00260891 38.33644188 -181.40948859 30.60070939 -187.58203125 22.59326172 C-189.18491156 20.52992337 -190.80957746 18.48503699 -192.4375 16.44140625 C-235.78846804 -38.20055926 -235.78846804 -38.20055926 -233.0625 -67.3125 C-231.58704989 -74.12011476 -228.9105415 -78.36946907 -223.07421875 -82.19921875 C-161.78545204 -116.11630324 -45.69035401 -35.11973132 0 0 Z " fill="#464344" transform="translate(280.0625,427.3125)"/>
<path d="M0 0 C0.54881836 0.47195801 1.09763672 0.94391602 1.66308594 1.43017578 C9.26836876 8.03522227 15.81132926 15.02956225 22 23 C22.64066406 23.75152344 23.28132812 24.50304687 23.94140625 25.27734375 C48.63278863 54.45806838 60.21447645 92.14348972 60.1875 129.9375 C60.18669434 131.11521973 60.18588867 132.29293945 60.18505859 133.50634766 C60.13540605 140.66702402 59.86767448 147.75172123 59.125 154.875 C59.04660889 155.63417725 58.96821777 156.39335449 58.88745117 157.17553711 C58.42666866 161.02835042 57.94744178 164.6080981 56 168 C54.12109375 168.9765625 54.12109375 168.9765625 52 169 C45.38649512 165.60497696 40.00705911 159.17792966 34.86938477 153.88427734 C32.12690541 151.06758417 29.3392401 148.39582669 26.34765625 145.84375 C20.03143858 140.39037884 14.27656611 134.33200308 8.41796875 128.39746094 C2.46314542 122.37245048 -3.5110666 116.45737777 -10 111 C-11.10603471 110.05013778 -12.21152121 109.09963677 -13.31640625 108.1484375 C-14.99793296 106.71049883 -16.6807549 105.27408744 -18.36376953 103.83789062 C-21.48825623 101.16699799 -24.59711845 98.48146572 -27.67578125 95.7578125 C-51.43149968 74.77722114 -78.44034683 57.91620685 -105.17163086 41.01074219 C-110.22709953 37.80956912 -115.17271295 34.53689037 -120 31 C-116.90964963 30.02446662 -114.86353227 30.01852642 -111.71875 30.75 C-110.88794922 30.94198975 -110.05714844 31.13397949 -109.20117188 31.33178711 C-108.30978516 31.55229736 -107.41839844 31.77280762 -106.5 32 C-105.56220703 32.23146729 -104.62441406 32.46293457 -103.65820312 32.70141602 C-69.49694926 41.39372297 -36.73857326 58.80370958 -8 79 C-7.28553711 79.49951172 -6.57107422 79.99902344 -5.83496094 80.51367188 C1.47614022 85.62987714 8.74067863 90.81071949 16 96 C8.1403265 86.5683918 -0.40209988 78.81067448 -10.15429688 71.40576172 C-11.89975578 70.07635003 -13.62982874 68.72890754 -15.359375 67.37890625 C-42.08709559 46.83506587 -73.11986598 31.96327838 -104.17700195 19.2199707 C-107.17929895 17.92251519 -110.08779714 16.4874777 -113 15 C-113 14.67 -113 14.34 -113 14 C-81.2915157 13.30780562 -49.92715297 23.86925843 -21 36 C-54.01687204 12.97950261 -92.57394698 -0.45340741 -131.73364258 -8.84472656 C-132.92111084 -9.1022168 -134.1085791 -9.35970703 -135.33203125 -9.625 C-136.38108643 -9.84414063 -137.4301416 -10.06328125 -138.51098633 -10.2890625 C-141 -11 -141 -11 -143 -13 C-110.36781758 -13.66806043 -78.40964014 -10.88319162 -47.1328125 -0.91796875 C-44.06426356 0.14059722 -44.06426356 0.14059722 -41 0 C-64.02677069 -15.64685034 -86.61065944 -21.10034097 -113.91313171 -25.09941101 C-120.78560579 -26.10734117 -127.64308643 -27.20393314 -134.5 -28.3125 C-136.55206361 -28.64204993 -138.60414481 -28.97149035 -140.65625 -29.30078125 C-142.10418165 -29.53376108 -143.55210477 -29.76679392 -145 -30 C-140.85416267 -32.29844254 -136.97015842 -32.45148207 -132.3125 -32.625 C-131.43891846 -32.66149658 -130.56533691 -32.69799316 -129.6652832 -32.7355957 C-84.04930241 -34.44464403 -36.07199052 -31.27530447 0 0 Z " fill="#464344" transform="translate(777,423)"/>
<path d="M0 0 C4.71850858 3.88106335 8.53511647 7.79034216 9.35546875 14.03125 C9.72306415 21.77303196 7.86100224 26.63670987 3.046875 32.68359375 C-3.25666071 39.51609749 -12.22398218 44.0788509 -21.46875 45.0546875 C-32.00127795 45.24198141 -38.96658125 43.54878841 -46.828125 36.43359375 C-52.63671956 30.09071809 -55.29914045 22.26477684 -54.953125 13.68359375 C-53.51415416 6.39959974 -49.35753662 2.23048009 -43.390625 -1.94140625 C-29.55875625 -10.19884955 -12.93018537 -9.19327009 0 0 Z " fill="#464344" transform="translate(321.953125,278.31640625)"/>
</svg>
